<?xml version="1.0" encoding="utf-8"?>
<!-- Generator: Adobe Illustrator 18.0.0, SVG Export Plug-In . SVG Version: 6.00 Build 0)  -->
<!DOCTYPE svg PUBLIC "-//W3C//DTD SVG 1.1//EN" "http://www.w3.org/Graphics/SVG/1.1/DTD/svg11.dtd">
<svg version="1.1" id="Layer_1" xmlns="http://www.w3.org/2000/svg" xmlns:xlink="http://www.w3.org/1999/xlink" x="0px" y="0px"
	 width="841.9px" height="595.3px" viewBox="0 0 841.9 595.3" enable-background="new 0 0 841.9 595.3" xml:space="preserve">
<g>
	<radialGradient id="SVGID_1_" cx="412.6169" cy="476.1014" r="504.0306" gradientUnits="userSpaceOnUse">
		<stop  offset="0" style="stop-color:#484E6C"/>
		<stop  offset="0.1869" style="stop-color:#454B68"/>
		<stop  offset="0.4463" style="stop-color:#3C435D"/>
		<stop  offset="0.7468" style="stop-color:#2D364D"/>
		<stop  offset="1" style="stop-color:#1D2A3D"/>
	</radialGradient>
	<rect fill="url(#SVGID_1_)" width="841.9" height="595.3"/>
	<g>
		<defs>
			<rect id="SVGID_2_" width="841.9" height="595.3"/>
		</defs>
		<clipPath id="SVGID_3_">
			<use xlink:href="#SVGID_2_"  overflow="visible"/>
		</clipPath>
		<g clip-path="url(#SVGID_3_)">
			<g>
				<g>
					<g>
						<path fill="#0A1729" d="M574.9,476.1c0,0-1,31.6,5.6,66.8c0,0-15.3,6.1-26,0c0,0,9.7-33.3,12-72L574.9,476.1z"/>
					</g>
					<g>
						<path fill="#0A1729" d="M537.1,379.4c-8.7,22.4-33.2,70.6-33.2,70.6c6.1-1,11.7-3.6,11.7-3.6c-8.2,15.3-28.6,43.4-28.6,43.4
							c14.3-1.5,39.3-8.7,39.3-8.7l-8.7,15.3c0,0,26.3-9.7,48.7-9.7c22.4,0,48.7,7.1,48.7,7.1l-8.2-12.2
							c20.1,4.1,38.8,12.2,38.8,12.2c-8.2-24-24-55.1-24-55.1l12.2,5.6c-19.4-35.7-26.5-74.5-26.5-74.5l8.2,3.1
							c-14.3-25.5-21.4-58.7-21.4-58.7l7.1,3.6c-20.9-36.7-27.8-69.8-27.8-69.8c-6,29.7-29.3,71.8-29.3,71.8c6.1-0.5,10.2-2,10.2-2
							s-10.7,36.7-26.8,65C527.7,383,530.5,383,537.1,379.4z"/>
					</g>
				</g>
				<g>
					<g>
						<path fill="#0A1729" d="M767.4,481.6c0,0-0.9,29.1,5.2,61.6c0,0-14.1,5.6-24,0c0,0,8.9-30.7,11-66.3L767.4,481.6z"/>
					</g>
					<g>
						<path fill="#0A1729" d="M732.7,392.5c-8,20.7-30.5,65.1-30.5,65.1c5.6-0.9,10.8-3.3,10.8-3.3c-7.5,14.1-26.3,39.9-26.3,39.9
							c13.2-1.4,36.2-8,36.2-8l-8,14.1c0,0,24.2-8.9,44.9-8.9c20.7,0,44.9,6.6,44.9,6.6l-7.5-11.3c18.5,3.7,35.7,11.3,35.7,11.3
							c-7.5-22.1-22.1-50.8-22.1-50.8l11.3,5.2c-17.9-32.9-24.4-68.6-24.4-68.6l7.5,2.8c-13.2-23.5-19.7-54-19.7-54l6.6,3.3
							c-19.3-33.8-25.6-64.3-25.6-64.3c-5.5,27.4-27,66.2-27,66.2c5.6-0.5,9.4-1.9,9.4-1.9s-9.9,33.8-24.7,59.9
							C724,395.8,726.6,395.8,732.7,392.5z"/>
					</g>
				</g>
				<g>
					<g>
						<path fill="#0A1729" d="M100.9,481.6c0,0-0.9,29.1,5.2,61.6c0,0-14.1,5.6-24,0c0,0,8.9-30.7,11-66.3L100.9,481.6z"/>
					</g>
					<g>
						<path fill="#0A1729" d="M66.1,392.5c-8,20.7-30.5,65.1-30.5,65.1c5.6-0.9,10.8-3.3,10.8-3.3C38.8,468.4,20,494.2,20,494.2
							c13.2-1.4,36.2-8,36.2-8l-8,14.1c0,0,24.2-8.9,44.9-8.9S138,498,138,498l-7.5-11.3c18.5,3.7,35.7,11.3,35.7,11.3
							c-7.5-22.1-22.1-50.8-22.1-50.8l11.3,5.2c-17.9-32.9-24.4-68.6-24.4-68.6l7.5,2.8c-13.2-23.5-19.7-54-19.7-54l6.6,3.3
							C106,302,99.7,271.6,99.7,271.6c-5.5,27.4-27,66.2-27,66.2c5.6-0.5,9.4-1.9,9.4-1.9s-9.9,33.8-24.7,59.9
							C57.4,395.8,60,395.8,66.1,392.5z"/>
					</g>
				</g>
				<g>
					<g>
						<path fill="#0A1729" d="M653,486c0,0-0.9,27.1,4.8,57.3c0,0-13.1,5.2-22.3,0c0,0,8.3-28.5,10.3-61.7L653,486z"/>
					</g>
					<g>
						<path fill="#0A1729" d="M620.6,403.1c-7.4,19.2-28.4,60.6-28.4,60.6c5.2-0.9,10.1-3.1,10.1-3.1c-7,13.1-24.5,37.2-24.5,37.2
							c12.2-1.3,33.7-7.4,33.7-7.4l-7.4,13.1c0,0,22.5-8.3,41.8-8.3c19.2,0,41.8,6.1,41.8,6.1l-7-10.5c17.2,3.5,33.2,10.5,33.2,10.5
							c-7-20.6-20.6-47.2-20.6-47.2l10.5,4.8C687.1,428.3,681,395,681,395l7,2.6c-12.2-21.9-18.4-50.3-18.4-50.3l6.1,3.1
							c-17.9-31.5-23.8-59.8-23.8-59.8c-5.1,25.5-25.2,61.6-25.2,61.6c5.2-0.4,8.7-1.7,8.7-1.7s-9.2,31.5-23,55.8
							C612.5,406.2,614.9,406.2,620.6,403.1z"/>
					</g>
				</g>
				<g>
					<g>
						<path fill="#0A1729" d="M476.1,493.7c0,0-0.8,23.6,4.2,49.9c0,0-11.4,4.6-19.4,0c0,0,7.2-24.8,8.9-53.7L476.1,493.7z"/>
					</g>
					<g>
						<path fill="#0A1729" d="M447.9,421.6c-6.5,16.7-24.7,52.7-24.7,52.7c4.6-0.8,8.8-2.7,8.8-2.7c-6.1,11.4-21.3,32.4-21.3,32.4
							c10.7-1.1,29.3-6.5,29.3-6.5l-6.5,11.4c0,0,19.6-7.2,36.4-7.2s36.4,5.3,36.4,5.3l-6.1-9.1c15,3,28.9,9.1,28.9,9.1
							c-6.1-17.9-17.9-41.1-17.9-41.1l9.1,4.2c-14.5-26.6-19.8-55.6-19.8-55.6l6.1,2.3c-10.7-19-16-43.8-16-43.8l5.3,2.7
							c-15.6-27.4-20.7-52.1-20.7-52.1c-4.5,22.2-21.9,53.6-21.9,53.6c4.6-0.4,7.6-1.5,7.6-1.5s-8,27.4-20,48.5
							C440.9,424.3,443,424.3,447.9,421.6z"/>
					</g>
				</g>
				<g>
					<g>
						<path fill="#0A1729" d="M692.9,493.7c0,0-0.8,23.6,4.2,49.9c0,0-11.4,4.6-19.4,0c0,0,7.2-24.8,8.9-53.7L692.9,493.7z"/>
					</g>
					<g>
						<path fill="#0A1729" d="M664.7,421.6c-6.5,16.7-24.7,52.7-24.7,52.7c4.6-0.8,8.8-2.7,8.8-2.7c-6.1,11.4-21.3,32.4-21.3,32.4
							c10.7-1.1,29.3-6.5,29.3-6.5l-6.5,11.4c0,0,19.6-7.2,36.4-7.2S723,507,723,507l-6.1-9.1c15,3,28.9,9.1,28.9,9.1
							c-6.1-17.9-17.9-41.1-17.9-41.1l9.1,4.2c-14.5-26.6-19.8-55.6-19.8-55.6l6.1,2.3c-10.7-19-16-43.8-16-43.8l5.3,2.7
							c-15.6-27.4-20.7-52.1-20.7-52.1c-4.5,22.2-21.9,53.6-21.9,53.6c4.6-0.4,7.6-1.5,7.6-1.5s-8,27.4-20,48.5
							C657.7,424.3,659.8,424.3,664.7,421.6z"/>
					</g>
				</g>
				<g>
					<g>
						<path fill="#0A1729" d="M63.2,475.6c0,0-1,31.8,5.6,67.3c0,0-15.4,6.2-26.2,0c0,0,9.8-33.5,12.1-72.5L63.2,475.6z"/>
					</g>
					<g>
						<path fill="#0A1729" d="M25.2,378.3c-8.7,22.6-33.4,71.1-33.4,71.1c6.2-1,11.8-3.6,11.8-3.6c-8.2,15.4-28.8,43.6-28.8,43.6
							c14.4-1.5,39.5-8.7,39.5-8.7l-8.7,15.4c0,0,26.4-9.8,49-9.8s49,7.2,49,7.2l-8.2-12.3c20.2,4.1,39,12.3,39,12.3
							c-8.2-24.1-24.1-55.5-24.1-55.5l12.3,5.6c-19.5-35.9-26.7-75-26.7-75l8.2,3.1c-14.4-25.7-21.6-59.1-21.6-59.1l7.2,3.6
							c-21.1-37-28-70.2-28-70.2c-6,29.9-29.5,72.3-29.5,72.3c6.2-0.5,10.3-2.1,10.3-2.1s-10.8,37-27,65.5
							C15.7,381.9,18.5,381.9,25.2,378.3z"/>
					</g>
				</g>
				<g>
					<g>
						<path fill="#0A1729" d="M826.4,472.4c0,0-1.1,33.3,5.9,70.4c0,0-16.1,6.4-27.4,0c0,0,10.2-35.1,12.6-75.8L826.4,472.4z"/>
					</g>
					<g>
						<path fill="#0A1729" d="M786.6,370.5c-9.1,23.6-34.9,74.4-34.9,74.4c6.4-1.1,12.4-3.8,12.4-3.8c-8.6,16.1-30.1,45.7-30.1,45.7
							c15-1.6,41.4-9.1,41.4-9.1l-9.1,16.1c0,0,27.7-10.2,51.3-10.2c23.6,0,51.3,7.5,51.3,7.5l-8.6-12.9
							c21.1,4.3,40.8,12.9,40.8,12.9c-8.6-25.3-25.3-58-25.3-58l12.9,5.9c-20.4-37.6-27.9-78.5-27.9-78.5l8.6,3.2
							c-15-26.9-22.6-61.8-22.6-61.8l7.5,3.8c-22-38.7-29.3-73.5-29.3-73.5c-6.3,31.3-30.9,75.6-30.9,75.6
							c6.4-0.5,10.7-2.1,10.7-2.1s-11.3,38.7-28.2,68.5C776.7,374.3,779.6,374.3,786.6,370.5z"/>
					</g>
				</g>
				<g>
					<g>
						<path fill="#0A1729" d="M169,476.1c0,0-1,31.6,5.6,66.8c0,0-15.3,6.1-26,0c0,0,9.7-33.3,12-72L169,476.1z"/>
					</g>
					<g>
						<path fill="#0A1729" d="M131.2,379.4c-8.7,22.4-33.2,70.6-33.2,70.6c6.1-1,11.7-3.6,11.7-3.6c-8.2,15.3-28.6,43.4-28.6,43.4
							c14.3-1.5,39.3-8.7,39.3-8.7l-8.7,15.3c0,0,26.3-9.7,48.7-9.7s48.7,7.1,48.7,7.1l-8.2-12.2c20.1,4.1,38.8,12.2,38.8,12.2
							c-8.2-24-24-55.1-24-55.1l12.2,5.6c-19.4-35.7-26.5-74.5-26.5-74.5l8.2,3.1c-14.3-25.5-21.4-58.7-21.4-58.7l7.1,3.6
							c-20.9-36.7-27.8-69.8-27.8-69.8c-6,29.7-29.3,71.8-29.3,71.8c6.1-0.5,10.2-2,10.2-2s-10.7,36.7-26.8,65
							C121.8,383,124.6,383,131.2,379.4z"/>
					</g>
				</g>
				<g>
					<g>
						<path fill="#0A1729" d="M298,486.6c0,0-0.9,26.8,4.8,56.7c0,0-13,5.2-22.1,0c0,0,8.2-28.2,10.2-61.1L298,486.6z"/>
					</g>
					<g>
						<path fill="#0A1729" d="M266,404.6c-7.4,19-28.1,59.9-28.1,59.9c5.2-0.9,10-3,10-3c-6.9,13-24.2,36.8-24.2,36.8
							c12.1-1.3,33.3-7.4,33.3-7.4l-7.4,13c0,0,22.3-8.2,41.3-8.2s41.3,6.1,41.3,6.1l-6.9-10.4c17,3.4,32.9,10.4,32.9,10.4
							c-6.9-20.3-20.3-46.7-20.3-46.7l10.4,4.8c-16.4-30.3-22.5-63.2-22.5-63.2l6.9,2.6c-12.1-21.6-18.2-49.8-18.2-49.8l6.1,3
							c-17.7-31.2-23.6-59.2-23.6-59.2c-5.1,25.2-24.9,60.9-24.9,60.9c5.2-0.4,8.7-1.7,8.7-1.7s-9.1,31.2-22.7,55.2
							C258,407.6,260.4,407.6,266,404.6z"/>
					</g>
				</g>
				<g>
					<g>
						<path fill="#0A1729" d="M15.3,486.6c0,0-0.9,26.8,4.8,56.7c0,0-13,5.2-22.1,0c0,0,8.2-28.2,10.2-61.1L15.3,486.6z"/>
					</g>
					<g>
						<path fill="#0A1729" d="M-16.8,404.6c-7.4,19-28.1,59.9-28.1,59.9c5.2-0.9,10-3,10-3c-6.9,13-24.2,36.8-24.2,36.8
							c12.1-1.3,33.3-7.4,33.3-7.4l-7.4,13c0,0,22.3-8.2,41.3-8.2s41.3,6.1,41.3,6.1l-6.9-10.4c17,3.4,32.9,10.4,32.9,10.4
							C68.5,481.4,55.1,455,55.1,455l10.4,4.8C49,429.5,43,396.6,43,396.6l6.9,2.6c-12.1-21.6-18.2-49.8-18.2-49.8l6.1,3
							c-17.7-31.2-23.6-59.2-23.6-59.2c-5.1,25.2-24.9,60.9-24.9,60.9c5.2-0.4,8.7-1.7,8.7-1.7s-9.1,31.2-22.7,55.2
							C-24.8,407.6-22.4,407.6-16.8,404.6z"/>
					</g>
				</g>
				<g>
					<g>
						<path fill="#0A1729" d="M206.2,472.4c0,0-1.1,33.3,5.9,70.4c0,0-16.1,6.4-27.4,0c0,0,10.2-35.1,12.6-75.8L206.2,472.4z"/>
					</g>
					<g>
						<path fill="#0A1729" d="M166.5,370.5c-9.1,23.6-34.9,74.4-34.9,74.4c6.4-1.1,12.4-3.8,12.4-3.8c-8.6,16.1-30.1,45.7-30.1,45.7
							c15-1.6,41.4-9.1,41.4-9.1l-9.1,16.1c0,0,27.7-10.2,51.3-10.2s51.3,7.5,51.3,7.5l-8.6-12.9c21.1,4.3,40.8,12.9,40.8,12.9
							c-8.6-25.3-25.3-58-25.3-58l12.9,5.9c-20.4-37.6-27.9-78.5-27.9-78.5l8.6,3.2c-15-26.9-22.6-61.8-22.6-61.8l7.5,3.8
							c-22-38.7-29.3-73.5-29.3-73.5c-6.3,31.3-30.9,75.6-30.9,75.6c6.4-0.5,10.7-2.1,10.7-2.1s-11.3,38.7-28.2,68.5
							C156.5,374.3,159.5,374.3,166.5,370.5z"/>
					</g>
				</g>
				<g>
					<g>
						<path fill="#0A1729" d="M370.8,472.4c0,0-1.1,33.3,5.9,70.4c0,0-16.1,6.4-27.4,0c0,0,10.2-35.1,12.6-75.8L370.8,472.4z"/>
					</g>
					<g>
						<path fill="#0A1729" d="M331,370.5c-9.1,23.6-34.9,74.4-34.9,74.4c6.4-1.1,12.4-3.8,12.4-3.8c-8.6,16.1-30.1,45.7-30.1,45.7
							c15-1.6,41.4-9.1,41.4-9.1l-9.1,16.1c0,0,27.7-10.2,51.3-10.2s51.3,7.5,51.3,7.5l-8.6-12.9c21.1,4.3,40.8,12.9,40.8,12.9
							c-8.6-25.3-25.3-58-25.3-58l12.9,5.9c-20.4-37.6-27.9-78.5-27.9-78.5l8.6,3.2c-15-26.9-22.6-61.8-22.6-61.8l7.5,3.8
							c-22-38.7-29.3-73.5-29.3-73.5c-6.3,31.3-30.9,75.6-30.9,75.6c6.4-0.5,10.7-2.1,10.7-2.1s-11.3,38.7-28.2,68.5
							C321.1,374.3,324,374.3,331,370.5z"/>
					</g>
				</g>
				<g>
					<g>
						<path fill="#0A1729" d="M420.2,474.7c0,0-1,32.2,5.7,68.1c0,0-15.6,6.2-26.5,0c0,0,9.9-33.9,12.2-73.4L420.2,474.7z"/>
					</g>
					<g>
						<path fill="#0A1729" d="M381.7,376.2c-8.8,22.9-33.8,72-33.8,72c6.2-1,12-3.6,12-3.6c-8.3,15.6-29.1,44.2-29.1,44.2
							c14.6-1.6,40-8.8,40-8.8l-8.8,15.6c0,0,26.8-9.9,49.7-9.9s49.7,7.3,49.7,7.3l-8.3-12.5c20.4,4.1,39.5,12.5,39.5,12.5
							c-8.3-24.4-24.4-56.2-24.4-56.2l12.5,5.7c-19.8-36.4-27-75.9-27-75.9l8.3,3.1c-14.6-26-21.8-59.8-21.8-59.8l7.3,3.6
							c-21.3-37.4-28.3-71.1-28.3-71.1c-6.1,30.3-29.9,73.2-29.9,73.2c6.2-0.5,10.4-2.1,10.4-2.1s-10.9,37.4-27.3,66.3
							C372.1,379.8,375,379.8,381.7,376.2z"/>
					</g>
				</g>
			</g>
		</g>
	</g>
	<g>
		<g>
			<g>
				<g>
					<path fill="#1D2A3D" d="M286.5,467.6c0,0,0.9,27.6-4.9,58.3c0,0,13.4,5.3,22.7,0c0,0-8.5-29.1-10.5-62.8L286.5,467.6z"/>
				</g>
				<g>
					<path fill="#1D2A3D" d="M319.5,383.2c7.6,19.6,28.9,61.7,28.9,61.7c-5.3-0.9-10.2-3.1-10.2-3.1c7.1,13.4,24.9,37.9,24.9,37.9
						c-12.5-1.3-34.3-7.6-34.3-7.6l7.6,13.4c0,0-22.9-8.5-42.5-8.5c-19.6,0-42.5,6.2-42.5,6.2l7.1-10.7
						c-17.5,3.5-33.8,10.7-33.8,10.7c7.1-20.9,20.9-48.1,20.9-48.1l-10.7,4.9c16.9-31.2,23.2-65,23.2-65l-7.1,2.7
						c12.5-22.3,18.7-51.2,18.7-51.2l-6.2,3.1c18.3-32.1,24.3-60.9,24.3-60.9c5.2,25.9,25.6,62.7,25.6,62.7
						c-5.3-0.4-8.9-1.8-8.9-1.8s9.4,32.1,23.4,56.8C327.7,386.3,325.3,386.3,319.5,383.2z"/>
				</g>
			</g>
			<g>
				<g>
					<path fill="#1D2A3D" d="M118.4,472.4c0,0,0.8,25.4-4.5,53.8c0,0,12.3,4.9,20.9,0c0,0-7.8-26.8-9.6-57.9L118.4,472.4z"/>
				</g>
				<g>
					<path fill="#1D2A3D" d="M148.8,394.6c7,18.1,26.7,56.8,26.7,56.8c-4.9-0.8-9.4-2.9-9.4-2.9c6.6,12.3,23,34.9,23,34.9
						c-11.5-1.2-31.6-7-31.6-7l7,12.3c0,0-21.1-7.8-39.2-7.8S86,486.8,86,486.8l6.6-9.8c-16.1,3.3-31.2,9.8-31.2,9.8
						c6.6-19.3,19.3-44.3,19.3-44.3l-9.8,4.5C86.4,418.2,92.1,387,92.1,387l-6.6,2.5c11.5-20.5,17.2-47.2,17.2-47.2l-5.7,2.9
						c16.8-29.5,22.4-56.1,22.4-56.1c4.8,23.9,23.6,57.8,23.6,57.8c-4.9-0.4-8.2-1.6-8.2-1.6s8.6,29.5,21.5,52.3
						C156.3,397.5,154.1,397.5,148.8,394.6z"/>
				</g>
			</g>
			<g>
				<g>
					<path fill="#1D2A3D" d="M218.3,476.3c0,0,0.8,23.7-4.2,50c0,0,11.5,4.6,19.5,0c0,0-7.3-24.9-9-53.9L218.3,476.3z"/>
				</g>
				<g>
					<path fill="#1D2A3D" d="M246.6,403.9c6.5,16.8,24.8,52.9,24.8,52.9c-4.6-0.8-8.8-2.7-8.8-2.7c6.1,11.5,21.4,32.5,21.4,32.5
						c-10.7-1.1-29.4-6.5-29.4-6.5l6.5,11.5c0,0-19.7-7.3-36.5-7.3s-36.5,5.3-36.5,5.3l6.1-9.2c-15,3-29,9.2-29,9.2
						c6.1-18,18-41.3,18-41.3l-9.2,4.2c14.5-26.7,19.9-55.8,19.9-55.8l-6.1,2.3c10.7-19.1,16-43.9,16-43.9l-5.3,2.7
						c15.7-27.5,20.8-52.2,20.8-52.2c4.5,22.3,22,53.8,22,53.8c-4.6-0.4-7.6-1.5-7.6-1.5s8,27.5,20.1,48.7
						C253.6,406.6,251.5,406.6,246.6,403.9z"/>
				</g>
			</g>
			<g>
				<g>
					<path fill="#1D2A3D" d="M372.8,483c0,0,0.7,20.6-3.7,43.5c0,0,10,4,17,0c0,0-6.3-21.7-7.8-46.9L372.8,483z"/>
				</g>
				<g>
					<path fill="#1D2A3D" d="M397.4,420c5.7,14.6,21.6,46,21.6,46c-4-0.7-7.6-2.3-7.6-2.3c5.3,10,18.6,28.3,18.6,28.3
						c-9.3-1-25.6-5.7-25.6-5.7l5.7,10c0,0-17.1-6.3-31.7-6.3s-31.7,4.7-31.7,4.7l5.3-8c-13.1,2.6-25.3,8-25.3,8
						c5.3-15.6,15.6-35.9,15.6-35.9l-8,3.7c12.6-23.3,17.3-48.5,17.3-48.5l-5.3,2c9.3-16.6,14-38.2,14-38.2l-4.7,2.3
						c13.6-23.9,18.1-45.5,18.1-45.5c3.9,19.4,19.1,46.8,19.1,46.8c-4-0.3-6.6-1.3-6.6-1.3s7,23.9,17.5,42.4
						C403.5,422.4,401.7,422.4,397.4,420z"/>
				</g>
			</g>
			<g>
				<g>
					<path fill="#1D2A3D" d="M733.8,471.3c0,0,0.8,26-4.6,54.8c0,0,12.6,5,21.3,0c0,0-8-27.3-9.8-59.1L733.8,471.3z"/>
				</g>
				<g>
					<path fill="#1D2A3D" d="M764.8,392c7.1,18.4,27.2,58,27.2,58c-5-0.8-9.6-2.9-9.6-2.9c6.7,12.6,23.4,35.6,23.4,35.6
						c-11.7-1.3-32.2-7.1-32.2-7.1l7.1,12.6c0,0-21.6-8-40-8c-18.4,0-40,5.9-40,5.9l6.7-10c-16.5,3.3-31.8,10-31.8,10
						c6.7-19.7,19.7-45.2,19.7-45.2l-10,4.6c15.9-29.3,21.8-61.1,21.8-61.1l-6.7,2.5c11.7-20.9,17.6-48.1,17.6-48.1l-5.9,2.9
						c17.2-30.1,22.8-57.2,22.8-57.2c4.9,24.4,24.1,58.9,24.1,58.9c-5-0.4-8.4-1.7-8.4-1.7s8.8,30.1,22,53.4
						C772.6,394.9,770.3,394.9,764.8,392z"/>
				</g>
			</g>
			<g>
				<g>
					<path fill="#1D2A3D" d="M66.9,464.4c0,0,0.9,29.1-5.2,61.5c0,0,14.1,5.6,23.9,0c0,0-8.9-30.6-11-66.2L66.9,464.4z"/>
				</g>
				<g>
					<path fill="#1D2A3D" d="M101.7,375.4c8,20.6,30.5,65,30.5,65c-5.6-0.9-10.8-3.3-10.8-3.3c7.5,14.1,26.3,39.9,26.3,39.9
						c-13.1-1.4-36.1-8-36.1-8l8,14.1c0,0-24.2-8.9-44.8-8.9s-44.8,6.6-44.8,6.6l7.5-11.3c-18.5,3.7-35.7,11.3-35.7,11.3
						c7.5-22.1,22.1-50.7,22.1-50.7l-11.3,5.2c17.8-32.8,24.4-68.5,24.4-68.5l-7.5,2.8c13.1-23.5,19.7-54,19.7-54l-6.6,3.3
						c19.2-33.8,25.6-64.2,25.6-64.2c5.5,27.3,27,66.1,27,66.1c-5.6-0.5-9.4-1.9-9.4-1.9s9.9,33.8,24.6,59.8
						C110.3,378.7,107.8,378.7,101.7,375.4z"/>
				</g>
			</g>
			<g>
				<g>
					<path fill="#1D2A3D" d="M640.9,467.6c0,0,0.9,27.6-4.9,58.3c0,0,13.4,5.3,22.7,0c0,0-8.5-29.1-10.5-62.8L640.9,467.6z"/>
				</g>
				<g>
					<path fill="#1D2A3D" d="M673.9,383.2c7.6,19.6,28.9,61.7,28.9,61.7c-5.3-0.9-10.2-3.1-10.2-3.1c7.1,13.4,24.9,37.9,24.9,37.9
						c-12.5-1.3-34.3-7.6-34.3-7.6l7.6,13.4c0,0-22.9-8.5-42.5-8.5c-19.6,0-42.5,6.2-42.5,6.2l7.1-10.7
						c-17.5,3.5-33.8,10.7-33.8,10.7c7.1-20.9,20.9-48.1,20.9-48.1l-10.7,4.9c16.9-31.2,23.2-65,23.2-65l-7.1,2.7
						c12.5-22.3,18.7-51.2,18.7-51.2l-6.2,3.1c18.3-32.1,24.3-60.9,24.3-60.9c5.2,25.9,25.6,62.7,25.6,62.7
						c-5.3-0.4-8.9-1.8-8.9-1.8s9.4,32.1,23.4,56.8C682.1,386.3,679.7,386.3,673.9,383.2z"/>
				</g>
			</g>
			<g>
				<g>
					<path fill="#1D2A3D" d="M528.3,476.8c0,0,0.8,23.4-4.2,49.5c0,0,11.3,4.5,19.3,0c0,0-7.2-24.7-8.9-53.3L528.3,476.8z"/>
				</g>
				<g>
					<path fill="#1D2A3D" d="M556.3,405.2c6.4,16.6,24.6,52.3,24.6,52.3c-4.5-0.8-8.7-2.6-8.7-2.6c6,11.3,21.2,32.1,21.2,32.1
						c-10.6-1.1-29.1-6.4-29.1-6.4l6.4,11.3c0,0-19.5-7.2-36.1-7.2s-36.1,5.3-36.1,5.3l6-9.1c-14.9,3-28.7,9.1-28.7,9.1
						c6-17.8,17.8-40.8,17.8-40.8l-9.1,4.2c14.4-26.5,19.7-55.2,19.7-55.2l-6,2.3c10.6-18.9,15.9-43.5,15.9-43.5l-5.3,2.6
						c15.5-27.2,20.6-51.7,20.6-51.7c4.4,22,21.7,53.2,21.7,53.2c-4.5-0.4-7.6-1.5-7.6-1.5s7.9,27.2,19.8,48.2
						C563.3,407.8,561.2,407.8,556.3,405.2z"/>
				</g>
			</g>
			<g>
				<g>
					<path fill="#1D2A3D" d="M775.2,476.8c0,0,0.8,23.4-4.2,49.5c0,0,11.3,4.5,19.3,0c0,0-7.2-24.7-8.9-53.3L775.2,476.8z"/>
				</g>
				<g>
					<path fill="#1D2A3D" d="M803.1,405.2c6.4,16.6,24.6,52.3,24.6,52.3c-4.5-0.8-8.7-2.6-8.7-2.6c6,11.3,21.2,32.1,21.2,32.1
						c-10.6-1.1-29.1-6.4-29.1-6.4l6.4,11.3c0,0-19.5-7.2-36.1-7.2c-16.6,0-36.1,5.3-36.1,5.3l6-9.1c-14.9,3-28.7,9.1-28.7,9.1
						c6-17.8,17.8-40.8,17.8-40.8l-9.1,4.2c14.4-26.5,19.7-55.2,19.7-55.2l-6,2.3c10.6-18.9,15.9-43.5,15.9-43.5l-5.3,2.6
						c15.5-27.2,20.6-51.7,20.6-51.7c4.4,22,21.7,53.2,21.7,53.2c-4.5-0.4-7.6-1.5-7.6-1.5s7.9,27.2,19.8,48.2
						C810.1,407.8,808.1,407.8,803.1,405.2z"/>
				</g>
			</g>
			<g>
				<g>
					<path fill="#1D2A3D" d="M608.4,464.4c0,0,0.9,29.1-5.2,61.5c0,0,14.1,5.6,23.9,0c0,0-8.9-30.6-11-66.2L608.4,464.4z"/>
				</g>
				<g>
					<path fill="#1D2A3D" d="M643.1,375.4c8,20.6,30.5,65,30.5,65c-5.6-0.9-10.8-3.3-10.8-3.3c7.5,14.1,26.3,39.9,26.3,39.9
						c-13.1-1.4-36.1-8-36.1-8l8,14.1c0,0-24.2-8.9-44.8-8.9c-20.6,0-44.8,6.6-44.8,6.6l7.5-11.3c-18.5,3.7-35.7,11.3-35.7,11.3
						c7.5-22.1,22.1-50.7,22.1-50.7l-11.3,5.2c17.8-32.8,24.4-68.5,24.4-68.5l-7.5,2.8c13.1-23.5,19.7-54,19.7-54l-6.6,3.3
						c19.2-33.8,25.6-64.2,25.6-64.2c5.5,27.3,27,66.1,27,66.1c-5.6-0.5-9.4-1.9-9.4-1.9s9.9,33.8,24.6,59.8
						C651.8,378.7,649.2,378.7,643.1,375.4z"/>
				</g>
			</g>
			<g>
				<g>
					<path fill="#1D2A3D" d="M421.6,466.4c0,0,0.9,28.2-5,59.5c0,0,13.6,5.4,23.2,0c0,0-8.6-29.6-10.7-64.1L421.6,466.4z"/>
				</g>
				<g>
					<path fill="#1D2A3D" d="M455.2,380.4c7.7,20,29.5,62.9,29.5,62.9c-5.4-0.9-10.4-3.2-10.4-3.2c7.3,13.6,25.4,38.6,25.4,38.6
						c-12.7-1.4-35-7.7-35-7.7l7.7,13.6c0,0-23.4-8.6-43.4-8.6s-43.4,6.4-43.4,6.4l7.3-10.9c-17.9,3.6-34.5,10.9-34.5,10.9
						c7.3-21.3,21.3-49,21.3-49l-10.9,5c17.3-31.8,23.6-66.3,23.6-66.3l-7.3,2.7c12.7-22.7,19.1-52.2,19.1-52.2l-6.4,3.2
						c18.6-32.7,24.7-62.1,24.7-62.1c5.3,26.5,26.1,63.9,26.1,63.9c-5.4-0.5-9.1-1.8-9.1-1.8s9.5,32.7,23.8,57.9
						C463.6,383.6,461.1,383.6,455.2,380.4z"/>
				</g>
			</g>
		</g>
	</g>
	<polygon fill="#484E6C" points="0,595.3 0,475.7 841.9,462.2 841.9,595.3 	"/>
	<g>
		<g>
			<polygon fill="#864F20" points="814.3,480.7 823.1,433 811.7,430.8 810.6,480.7 			"/>
			<path fill="#4C2800" d="M763.2,427.5c0,0,22.9,15.9,59.9,20.3v2.4c0,0-40.7-1.1-60.2-21.1L763.2,427.5z"/>
		</g>
		<g>
			<path fill="#F2B322" d="M445.3,276.6l-10-2.2c0,0-26.5,83.2-123.1,148.6l8.9,4.4C321.1,427.5,419.8,395.3,445.3,276.6z"/>
			<path fill="#FFDE17" d="M445.3,276.6c0,0-25.5,87.6-124.2,150.8l11.1,53.2H574l17.7-53.2C591.7,427.5,471.9,385.3,445.3,276.6z"
				/>
			<polygon fill="#4C2800" points="445.3,276.6 445.3,480.7 391,480.7 			"/>
			<path fill="#F7C61E" d="M445.3,276.6c0,0-15.5,142-54.3,204.1l-42.1-28.8C348.8,451.9,409.8,411.9,445.3,276.6z"/>
			<path fill="#FAC81E" d="M669.4,282.2c-130.9,8.9-234-7.8-234-7.8C462,383.1,591.7,427.5,591.7,427.5L574,480.7h173l20-53.2
				C687.1,369.8,669.4,282.2,669.4,282.2z"/>
			<path fill="#F2B322" d="M591.7,427.5c0,0,107.6,17.7,175.2,0l-20,53.2H574L591.7,427.5z"/>
		</g>
		<g>
			<polygon fill="#864F20" points="270.1,480.7 261.2,433 272.7,430.8 273.8,480.7 			"/>
			<path fill="#4C2800" d="M321.1,427.5c0,0-22.9,15.9-59.9,20.3v2.4c0,0,40.7-1.1,60.2-21.1L321.1,427.5z"/>
		</g>
		<g>
			<polygon fill="#864F20" points="643.1,480.7 652,433 640.5,430.8 639.4,480.7 			"/>
			<path fill="#4C2800" d="M592.1,427.5c0,0,22.9,15.9,59.9,20.3v2.4c0,0-40.7-1.1-60.2-21.1L592.1,427.5z"/>
		</g>
	</g>
	<path fill="#1D2A3D" d="M0,595.3v-99.6c0,0,428.2,12.2,841.9,33v66.5H0z"/>
	<g>
		<path fill="#484E6C" d="M842.4,56.6c0,0-123.3,4.4-157,11.4s23,8.7,26.7,15.7c3.8,7-73.6,5.2-111.2,5.2s-23.8,8.7-32.3,13.1
			c-8.5,4.4-52.2,0.9-60.3,5.2s-17.9,19.2-44.1,24.5c-26.1,5.2-105.2,20-105.2,20s354.1-6.7,366.9-15.5s2.7-11.4,23-15.3
			c20.3-4,93.5-6.5,93.5-6.5V56.6z"/>
		<path fill="#484E6C" d="M-0.5,32.7c0,0,106.6,4.1,140.5,12.7s11.9,9.9,17.2,18.6s104.3,3.8,119.4,8.8c15,5,25.3,16.3,34,18.8
			c8.6,2.5,58.3,6.3,58.3,6.3s-255.2-2.5-274-6.3S80.6,80.3,69,76.5C57.3,72.8-0.5,74-0.5,74V32.7z"/>
	</g>
	<path fill="#FCF1C0" d="M291.1,212.4c-22.2,0-40.3-18-40.3-40.3c0-22.2,18-40.3,40.3-40.3c8.6,0,16.6,2.7,23.2,7.3
		c-9.6-12-24.4-19.7-41-19.7c-29.1,0-52.6,23.6-52.6,52.6c0,29.1,23.6,52.6,52.6,52.6c16.6,0,31.4-7.7,41-19.7
		C307.7,209.7,299.8,212.4,291.1,212.4z"/>
	<g>
		<g>
			<path fill="#FFFFFF" d="M699.9,202.6c3.2,0,3.2-5,0-5C696.7,197.6,696.7,202.6,699.9,202.6L699.9,202.6z"/>
		</g>
		<g>
			<path fill="#FFFFFF" d="M121,181.6c3.2,0,3.2-5,0-5S117.7,181.6,121,181.6L121,181.6z"/>
		</g>
		<g>
			<path fill="#FFFFFF" d="M360.9,103.6c3.2,0,3.2-5,0-5S357.7,103.6,360.9,103.6L360.9,103.6z"/>
		</g>
		<g>
			<path fill="#FFFFFF" d="M813.9,198.1c3.2,0,3.2-5,0-5S810.7,198.1,813.9,198.1L813.9,198.1z"/>
		</g>
		<g>
			<path fill="#FFFFFF" d="M516.9,268.6c3.2,0,3.2-5,0-5C513.7,263.6,513.7,268.6,516.9,268.6L516.9,268.6z"/>
		</g>
		<g>
			<path fill="#FFFFFF" d="M344.4,198.1c3.2,0,3.2-5,0-5S341.2,198.1,344.4,198.1L344.4,198.1z"/>
		</g>
		<g>
			<path fill="#FFFFFF" d="M43,25.6c3.2,0,3.2-5,0-5C39.7,20.6,39.7,25.6,43,25.6L43,25.6z"/>
		</g>
		<g>
			<path fill="#FFFFFF" d="M28,261.1c3.2,0,3.2-5,0-5S24.7,261.1,28,261.1L28,261.1z"/>
		</g>
		<g>
			<path fill="#FFFFFF" d="M665.4,25.6c3.2,0,3.2-5,0-5C662.2,20.6,662.2,25.6,665.4,25.6L665.4,25.6z"/>
		</g>
		<g>
			<path fill="#FFFFFF" d="M557.4,187.6c3.2,0,3.2-5,0-5S554.2,187.6,557.4,187.6L557.4,187.6z"/>
		</g>
		<g>
			<path fill="#FFFFFF" d="M573.9,177.6c5.8,0,5.8-9,0-9C568.1,168.6,568.1,177.6,573.9,177.6L573.9,177.6z"/>
		</g>
		<g>
			<path fill="#FFFFFF" d="M197.5,131.1c5.8,0,5.8-9,0-9S191.7,131.1,197.5,131.1L197.5,131.1z"/>
		</g>
		<g>
			<path fill="#FFFFFF" d="M44.5,180.6c5.8,0,5.8-9,0-9S38.7,180.6,44.5,180.6L44.5,180.6z"/>
		</g>
		<g>
			<path fill="#FFFFFF" d="M788.4,53.1c5.8,0,5.8-9,0-9S782.6,53.1,788.4,53.1L788.4,53.1z"/>
		</g>
		<g>
			<path fill="#FFFFFF" d="M728.4,224.1c5.8,0,5.8-9,0-9S722.6,224.1,728.4,224.1L728.4,224.1z"/>
		</g>
		<g>
			<path fill="#FFFFFF" d="M353.4,227.1c5.8,0,5.8-9,0-9C347.6,218.1,347.6,227.1,353.4,227.1L353.4,227.1z"/>
		</g>
		<g>
			<path fill="#FFFFFF" d="M308.5,74.1c5.8,0,5.8-9,0-9S302.6,74.1,308.5,74.1L308.5,74.1z"/>
		</g>
		<g>
			<path fill="#FFFFFF" d="M476.4,90.6c5.8,0,5.8-9,0-9C470.6,81.6,470.6,90.6,476.4,90.6L476.4,90.6z"/>
		</g>
		<g>
			<path fill="#FFFFFF" d="M79,24.6c5.8,0,5.8-9,0-9C73.2,15.6,73.2,24.6,79,24.6L79,24.6z"/>
		</g>
		<g>
			<path fill="#FFFFFF" d="M759.9,143.1c5.8,0,5.8-9,0-9C754.1,134.1,754.1,143.1,759.9,143.1L759.9,143.1z"/>
		</g>
		<g>
			<path fill="#FFFFFF" d="M170.5,234.6c5.8,0,5.8-9,0-9C164.7,225.6,164.7,234.6,170.5,234.6L170.5,234.6z"/>
		</g>
		<g>
			<path fill="#FFFFFF" d="M584.4,26.1c5.8,0,5.8-9,0-9S578.6,26.1,584.4,26.1L584.4,26.1z"/>
		</g>
	</g>
</g>
</svg>
